<svg width="191" height="60" viewBox="0 0 191 60" fill="none" xmlns="http://www.w3.org/2000/svg">
<path d="M26.3256 16.6545H32.0403V35.7216C32.0403 37.4841 31.6442 39.0152 30.852 40.3148C30.0687 41.6144 28.9782 42.6158 27.5807 43.319C26.1831 44.0223 24.5586 44.3739 22.7071 44.3739C21.0603 44.3739 19.5649 44.0846 18.2207 43.506C16.8855 42.9185 15.8262 42.0283 15.0429 40.8355C14.2596 39.6338 13.8723 38.125 13.8812 36.3091H19.6361C19.6539 37.0301 19.8008 37.6488 20.0767 38.1651C20.3616 38.6724 20.7488 39.0641 21.2384 39.3401C21.7368 39.6071 22.3243 39.7406 23.0009 39.7406C23.713 39.7406 24.3138 39.5893 24.8034 39.2866C25.3019 38.9751 25.6802 38.5211 25.9384 37.9247C26.1965 37.3283 26.3256 36.5939 26.3256 35.7216V16.6545Z" fill="#FCFDFF"/>
<rect x="18" y="17" width="7" height="5" fill="#FCFDFF"/>
<rect x="56" y="28" width="13" height="5" fill="#FCFDFF"/>
<path d="M88.3184 17.7176H73.88V44.0376H88.3184C92.7928 44.0376 96.4024 40.3904 96.4024 35.916C96.4024 33.9984 95.7256 32.2312 94.6352 30.8776C95.7256 29.4864 96.4024 27.7192 96.4024 25.8016C96.4024 21.3272 92.7928 17.7176 88.3184 17.7176ZM88.3184 37.9464H79.9336V33.8856H88.3184C89.4088 33.8856 90.3112 34.788 90.3112 35.916C90.3112 37.044 89.4088 37.9464 88.3184 37.9464ZM88.3184 27.832H79.9336V23.7712H88.3184C89.4088 23.7712 90.3112 24.6736 90.3112 25.8016C90.3112 26.9296 89.4088 27.832 88.3184 27.832ZM106.419 17.7176L98.3347 44.0376H104.651L109.577 28.02L114.503 44.0376H120.857L112.773 17.7176H106.419ZM139.445 25.8392L142.114 23.1696L143.054 22.2296L143.731 21.5528C138.58 16.4016 130.27 16.4016 125.119 21.5528C119.968 26.704 119.968 35.0136 125.119 40.1648C130.27 45.316 138.58 45.316 143.731 40.1648L142.114 38.548L139.445 35.8784C136.662 38.6608 132.188 38.6608 129.406 35.8784C126.623 33.096 126.623 28.6216 129.406 25.8392C132.188 23.0944 136.662 23.0944 139.445 25.8392ZM155.034 23.7712H161.389C162.479 23.7712 163.382 24.6736 163.382 25.8016H169.473C169.473 21.3272 165.863 17.7176 161.389 17.7176H155.034C150.56 17.7176 146.95 21.3272 146.95 25.8016C146.95 30.276 150.56 33.8856 155.034 33.8856H161.389C162.479 33.8856 163.382 34.788 163.382 35.916C163.382 37.044 162.479 37.9464 161.389 37.9464H155.034C153.906 37.9464 153.004 37.044 153.004 35.916H146.95C146.95 40.3904 150.56 44.0376 155.034 44.0376H161.389C165.863 44.0376 169.473 40.3904 169.473 35.916C169.473 31.4416 165.863 27.832 161.389 27.832H155.034C153.906 27.832 153.004 26.9296 153.004 25.8016C153.004 24.6736 153.906 23.7712 155.034 23.7712Z" fill="#FD5E04"/>
<rect x="36" y="17" width="5" height="27" fill="#FCFDFF"/>
<rect x="54" y="39" width="5" height="12" transform="rotate(90 54 39)" fill="#FCFDFF"/>
</svg>
